<?xml version="1.0" encoding="utf-8"?>
<!-- Generator: Adobe Illustrator 14.0.0, SVG Export Plug-In . SVG Version: 6.00 Build 43363)  -->
<!DOCTYPE svg PUBLIC "-//W3C//DTD SVG 1.1//EN" "http://www.w3.org/Graphics/SVG/1.1/DTD/svg11.dtd">
<svg version="1.1" id="Laag_1" xmlns="http://www.w3.org/2000/svg" xmlns:xlink="http://www.w3.org/1999/xlink" x="0px" y="0px"
	 width="718px" height="73px" viewBox="0 0 717.961 72.996" enable-background="new 0 0 717.961 72.996"
	 xml:space="preserve">
<g>
	<path fill="#FFFFFF" d="M89.791,60.946H47.089l-5.933,12.05H2.753L48.502,0h41.026l45.738,72.996H95.88L89.791,60.946z
		 M81.988,45.162L68.553,18.921L55.258,45.162H81.988z"/>
	<path fill="#FFFFFF" d="M147.472,0h35.121l45.832,40.385V0h35.453v72.996h-35.453l-45.583-40.08v40.08h-35.37V0z"/>
	<path fill="#FFFFFF" d="M290.364,0h37.695v72.996h-37.695V0z"/>
	<path fill="#FF0000" d="M355.541,0h55.878c11.014,0,19.913,0.896,26.694,2.689c6.779,1.792,12.383,4.365,16.812,7.718
		c4.427,3.353,7.639,7.253,9.631,11.701c1.992,4.449,2.99,9.162,2.99,14.141c0,7.801-1.481,13.851-4.443,18.149
		c-2.961,4.3-7.071,7.9-12.33,10.805c-5.259,2.905-10.904,4.839-16.938,5.801c-8.247,1.328-15.721,1.992-22.417,1.992h-55.878V0z
		 M393.152,16.531v39.884h9.217c7.858,0,13.45-0.522,16.771-1.568c3.321-1.046,5.923-2.871,7.805-5.478
		c1.883-2.605,2.823-6.829,2.823-12.672c0-7.734-2.104-13.029-6.311-15.884c-4.207-2.854-11.18-4.282-20.922-4.282H393.152z"/>
	<path fill="#FF0000" d="M554.832,60.946h-42.7l-5.934,12.05h-38.403L513.545,0h41.025l45.738,72.996h-39.386L554.832,60.946z
		 M547.031,45.162l-13.437-26.241l-13.294,26.241H547.031z"/>
	<path fill="#FF0000" d="M585.529,0h41.779l24.523,24.625L676.406,0h41.555l-47.326,42.423v30.573h-37.695V42.423L585.529,0z"/>
</g>
</svg>
